<svg preserveAspectRatio="none" width="100%" height="100%" overflow="visible" style="display: block;" viewBox="0 0 18 21" fill="none" xmlns="http://www.w3.org/2000/svg">
<g id="elements">
<path id="Rectangle 2172" d="M0.5 8.5C0.5 4.72876 0.5 2.84315 1.7448 1.67157C2.98959 0.5 4.99306 0.5 9 0.5H9.77273C13.0339 0.5 14.6645 0.5 15.7969 1.29784C16.1214 1.52643 16.4094 1.79752 16.6523 2.10289C17.5 3.16867 17.5 4.70336 17.5 7.77273V10.3182C17.5 13.2814 17.5 14.7629 17.0311 15.9462C16.2772 17.8486 14.6829 19.3491 12.6616 20.0586C11.4044 20.5 9.83019 20.5 6.68182 20.5C4.88275 20.5 3.98322 20.5 3.26478 20.2478C2.10979 19.8424 1.19875 18.9849 0.767964 17.8979C0.5 17.2217 0.5 16.3751 0.5 14.6818V8.5Z" stroke="var(--stroke-0, #737373)" stroke-linejoin="round"/>
<path id="Vector" d="M17.5 10.5C17.5 12.3409 16.0076 13.8333 14.1667 13.8333C13.5009 13.8333 12.716 13.7167 12.0686 13.8901C11.4935 14.0442 11.0442 14.4935 10.8901 15.0686C10.7167 15.716 10.8333 16.5009 10.8333 17.1667C10.8333 19.0076 9.34095 20.5 7.5 20.5" stroke="var(--stroke-0, #737373)" stroke-linecap="round" stroke-linejoin="round"/>
<path id="Vector 4381" d="M5 5.5H12" stroke="var(--stroke-0, #737373)" stroke-linecap="round" stroke-linejoin="round"/>
<path id="Vector 4382" d="M5 9.5H8" stroke="var(--stroke-0, #737373)" stroke-linecap="round" stroke-linejoin="round"/>
</g>
</svg>
