<svg preserveAspectRatio="none" width="100%" height="100%" overflow="visible" style="display: block;" viewBox="0 0 21.5 20.4999" fill="none" xmlns="http://www.w3.org/2000/svg">
<g id="elements">
<path id="Vector" d="M6.75 11.75H14.75M6.75 6.75H10.75" stroke="var(--stroke-0, #2E2E2E)" stroke-width="1.5" stroke-linecap="round" stroke-linejoin="round"/>
<path id="Vector_2" d="M4.84882 17.25C3.5487 17.1221 2.57476 16.7316 1.92157 16.0784C0.750001 14.9069 0.750001 13.0212 0.750001 9.25V8.75C0.750001 4.97876 0.750001 3.09315 1.92157 1.92157C3.09315 0.750001 4.97876 0.750001 8.75 0.750001H12.75C16.5212 0.750001 18.4069 0.750001 19.5784 1.92157C20.75 3.09315 20.75 4.97876 20.75 8.75V9.25C20.75 13.0212 20.75 14.9069 19.5784 16.0784C18.4069 17.25 16.5212 17.25 12.75 17.25C12.1895 17.2625 11.7431 17.3051 11.3046 17.405C10.1062 17.6809 8.99652 18.2941 7.89987 18.8289C6.33729 19.5908 5.556 19.9718 5.0657 19.6151C4.12769 18.9165 5.04454 16.7519 5.25 15.75" stroke="var(--stroke-0, #2E2E2E)" stroke-width="1.5" stroke-linecap="round"/>
</g>
</svg>
