<svg preserveAspectRatio="none" width="100%" height="100%" overflow="visible" style="display: block;" viewBox="0 0 21.0001 21" fill="none" xmlns="http://www.w3.org/2000/svg">
<g id="elements">
<path id="Vector" d="M11.5001 20.5H5.09098C3.54561 20.5 2.31643 19.748 1.21278 18.6966C-1.04652 16.5441 2.66292 14.824 4.07769 13.9816C6.4769 12.553 9.34262 12.1575 12.0001 12.7952" stroke="var(--stroke-0, #737373)" stroke-linecap="round" stroke-linejoin="round"/>
<path id="Ellipse 1382" d="M15.0001 5C15.0001 7.48528 12.9854 9.5 10.5001 9.5C8.01483 9.5 6.00012 7.48528 6.00012 5C6.00012 2.51472 8.01483 0.5 10.5001 0.5C12.9854 0.5 15.0001 2.51472 15.0001 5Z" stroke="var(--stroke-0, #737373)"/>
<path id="Vector_2" d="M14.5501 14.55L19.4501 19.45M20.5001 17C20.5001 15.067 18.9331 13.5 17.0001 13.5C15.0671 13.5 13.5001 15.067 13.5001 17C13.5001 18.933 15.0671 20.5 17.0001 20.5C18.9331 20.5 20.5001 18.933 20.5001 17Z" stroke="var(--stroke-0, #737373)" stroke-linecap="round"/>
</g>
</svg>
