<svg preserveAspectRatio="none" width="100%" height="100%" overflow="visible" style="display: block;" viewBox="0 0 12.0833 12.0833" fill="none" xmlns="http://www.w3.org/2000/svg">
<g id="elements">
<circle id="Ellipse 1119" cx="3.41667" cy="3.41667" r="0.875" stroke="var(--stroke-0, #008C99)" stroke-linecap="round" stroke-linejoin="round"/>
<path id="Rectangle 2056" d="M0.5 6.04167C0.5 3.4293 0.5 2.12312 1.31156 1.31156C2.12312 0.5 3.4293 0.5 6.04167 0.5C8.65403 0.5 9.96022 0.5 10.7718 1.31156C11.5833 2.12312 11.5833 3.4293 11.5833 6.04167C11.5833 8.65403 11.5833 9.96022 10.7718 10.7718C9.96022 11.5833 8.65403 11.5833 6.04167 11.5833C3.4293 11.5833 2.12312 11.5833 1.31156 10.7718C0.5 9.96022 0.5 8.65403 0.5 6.04167Z" stroke="var(--stroke-0, #008C99)"/>
<path id="Vector" d="M1.95833 11.2917C4.50893 8.24376 7.3682 4.22403 11.5819 6.94141" stroke="var(--stroke-0, #008C99)"/>
</g>
</svg>
