<svg preserveAspectRatio="none" width="100%" height="100%" overflow="visible" style="display: block;" viewBox="0 0 24 24" fill="none" xmlns="http://www.w3.org/2000/svg">
<g id="Grupo 8245">
<path id="Caminho 5714" d="M8.80038 10.2218C8.79036 10.2249 8.77961 10.2249 8.76959 10.2218C8.75956 10.2187 8.75074 10.2121 8.74421 10.2039C8.24292 9.35999 7.96194 8.40391 7.92711 7.42297C7.92479 7.39852 7.91629 7.37542 7.90242 7.35514C7.88855 7.33487 7.86976 7.31829 7.84781 7.30726C7.82586 7.29624 7.80147 7.29033 7.77693 7.29131C7.75238 7.29228 7.72848 7.29952 7.70748 7.31225C6.24992 8.15894 5.12264 9.47546 4.50981 11.0457C3.89698 12.616 3.83483 14.3481 4.33357 15.9582C4.8323 17.5684 5.86242 18.9612 7.25557 19.9102C8.64871 20.8591 10.3225 21.3074 12.0035 21.1819C13.0426 21.2086 14.0765 21.027 15.0445 20.6483C16.0125 20.2696 16.8949 19.7013 17.64 18.9766C18.3851 18.2518 18.9776 17.3852 19.3829 16.428C19.7882 15.4709 19.9981 14.4422 20.0001 13.4027C20.0001 8.0118 16.1463 4.43065 12.7144 2.81071C12.6943 2.80078 12.6719 2.79586 12.6496 2.79775C12.6274 2.79963 12.606 2.80753 12.5879 2.82069C12.5698 2.83384 12.5556 2.85193 12.547 2.87256C12.5383 2.89318 12.5354 2.91625 12.5387 2.93839C12.982 5.84427 12.3722 9.00434 8.80038 10.2218Z" stroke="var(--stroke-0, #F97316)" stroke-width="1.5" stroke-linecap="round" stroke-linejoin="round"/>
<g id="Ret&#195;&#162;ngulo 518">
</g>
</g>
</svg>
