<svg preserveAspectRatio="none" width="100%" height="100%" overflow="visible" style="display: block;" viewBox="0 0 16 16" fill="none" xmlns="http://www.w3.org/2000/svg">
<g id="Grupo 10905">
<g id="Retângulo 4036">
</g>
<g id="Grupo 10904">
<path id="Retângulo 4037" d="M10.6666 5.33333H5.33327C4.74416 5.33333 4.2666 5.8109 4.2666 6.4V11.7333C4.2666 12.3224 4.74416 12.8 5.33327 12.8H10.6666C11.2557 12.8 11.7333 12.3224 11.7333 11.7333V6.4C11.7333 5.8109 11.2557 5.33333 10.6666 5.33333Z" stroke="var(--stroke-0, #008C99)" stroke-linecap="round" stroke-linejoin="round"/>
<path id="Linha 270" d="M6.93327 6.93333H9.0666" stroke="var(--stroke-0, #008C99)" stroke-linecap="round" stroke-linejoin="round"/>
<path id="Linha 271" d="M5.8666 12.8V13.3333" stroke="var(--stroke-0, #008C99)" stroke-linecap="round" stroke-linejoin="round"/>
<path id="Linha 272" d="M10.1333 12.8V13.3333" stroke="var(--stroke-0, #008C99)" stroke-linecap="round" stroke-linejoin="round"/>
<path id="Caminho 22426" d="M10.1333 5.33333V3.73333C10.1333 3.45044 10.0209 3.17895 9.82083 2.97891C9.62079 2.77887 9.3495 2.66667 9.0666 2.66667H6.93327C6.65037 2.66667 6.37908 2.77887 6.17904 2.97891C5.979 3.17895 5.8666 3.45044 5.8666 3.73333V5.33333" stroke="var(--stroke-0, #008C99)" stroke-linecap="round" stroke-linejoin="round"/>
<path id="Linha 273" d="M7.99994 8.53333V11.2" stroke="var(--stroke-0, #008C99)" stroke-linecap="round" stroke-linejoin="round"/>
<path id="Linha 274" d="M5.8666 8.53333V11.2" stroke="var(--stroke-0, #008C99)" stroke-linecap="round" stroke-linejoin="round"/>
<path id="Linha 275" d="M10.1333 8.53333V11.2" stroke="var(--stroke-0, #008C99)" stroke-linecap="round" stroke-linejoin="round"/>
</g>
</g>
</svg>
