<svg preserveAspectRatio="none" width="100%" height="100%" overflow="visible" style="display: block;" viewBox="0 0 16.1582 16.1572" fill="none" xmlns="http://www.w3.org/2000/svg">
<g id="Icon senha 02">
<path id="Caminho 22758" d="M4.76189 4.51797C4.92696 4.68228 4.92696 4.94957 4.76189 5.11279C4.5979 5.27819 4.33171 5.27819 4.16657 5.11279C4.00259 4.94956 4.00259 4.68228 4.16657 4.51797C4.33171 4.35366 4.5979 4.35366 4.76189 4.51797ZM4.76189 4.51797V4.51797Z" stroke="var(--stroke-0, #737373)" stroke-linecap="round" stroke-linejoin="round"/>
<path id="Caminho 22759" d="M8.48158 4.51797C8.64649 4.68228 8.64649 4.94957 8.48158 5.11279C8.31776 5.27819 8.05067 5.27819 7.88684 5.11279C7.72193 4.94956 7.72193 4.68228 7.88684 4.51797C8.05067 4.35366 8.31776 4.35366 8.48158 4.51797ZM8.48158 4.51797V4.51797Z" stroke="var(--stroke-0, #737373)" stroke-linecap="round" stroke-linejoin="round"/>
<path id="Caminho 22760" d="M12.2018 4.51797C12.3658 4.68228 12.3658 4.94957 12.2018 5.11279C12.0367 5.27819 11.7705 5.27819 11.6065 5.11279C11.4415 4.94956 11.4415 4.68228 11.6065 4.51797C11.7705 4.35366 12.0367 4.35366 12.2018 4.51797ZM12.2018 4.51797V4.51797Z" stroke="var(--stroke-0, #737373)" stroke-linecap="round" stroke-linejoin="round"/>
<path id="Union" d="M12.6514 7.5791C13.8402 7.57924 14.8037 8.5435 14.8037 9.73242V10.6992C15.5633 10.7728 16.157 11.4135 16.1572 12.1924V14.6572C16.1572 15.4856 15.4856 16.1572 14.6572 16.1572H10.7627C9.93449 16.157 9.26273 15.4855 9.2627 14.6572V12.1924C9.26289 11.4546 9.79625 10.842 10.498 10.7168V9.73242C10.498 8.54356 11.4626 7.57934 12.6514 7.5791ZM10.7627 11.6924C10.4869 11.6926 10.2629 11.9166 10.2627 12.1924V14.6572C10.2627 14.9332 10.4868 15.157 10.7627 15.1572H14.6572C14.9333 15.1572 15.1572 14.9333 15.1572 14.6572V12.1924C15.157 11.9164 14.9332 11.6924 14.6572 11.6924H10.7627ZM12.6514 8.5791C12.0148 8.57934 11.498 9.09592 11.498 9.73242V10.6924H13.8037V9.73242C13.8037 9.09587 13.288 8.57924 12.6514 8.5791ZM13.9736 0C15.1802 0 16.1582 0.977426 16.1582 2.18457V4.71094C16.158 4.98679 15.9341 5.21077 15.6582 5.21094C15.3822 5.21094 15.1584 4.98689 15.1582 4.71094V2.18457C15.1582 1.52987 14.6281 1 13.9736 1H2.18457C1.53012 1 1 1.52987 1 2.18457V7.2373C1.00025 7.89113 1.53044 8.4209 2.18457 8.4209H7.2373C7.51318 8.42115 7.73722 8.64498 7.7373 8.9209C7.7373 9.19689 7.51323 9.42065 7.2373 9.4209H2.18457C0.977993 9.4209 0.000250112 8.44325 0 7.2373V2.18457C0 0.977426 0.977998 0 2.18457 0H13.9736Z" fill="var(--fill-0, #737373)"/>
</g>
</svg>
