<svg preserveAspectRatio="none" width="100%" height="100%" overflow="visible" style="display: block;" viewBox="0 0 21.5 21.5" fill="none" xmlns="http://www.w3.org/2000/svg">
<g id="elements">
<path id="Ellipse 1591" d="M20.75 10.75C20.75 5.22715 16.2728 0.75 10.75 0.75C5.22715 0.75 0.75 5.22715 0.75 10.75C0.75 16.2728 5.22715 20.75 10.75 20.75C16.2728 20.75 20.75 16.2728 20.75 10.75Z" stroke="var(--stroke-0, #008C99)" stroke-width="1.5"/>
<path id="Vector" d="M18.75 4.44899C17.8153 4.51636 16.6181 4.87824 15.7879 5.95277C14.2885 7.89361 12.789 8.05556 11.7894 7.40861C10.2899 6.4382 11.55 4.86636 9.79013 4.01215C8.64313 3.45542 8.48321 1.94045 9.12158 0.75" stroke="var(--stroke-0, #008C99)" stroke-width="1.5" stroke-linejoin="round"/>
<path id="Vector_2" d="M0.75 9.75C1.5125 10.4121 2.58046 11.0182 3.83874 11.0182C6.43843 11.0182 6.95837 11.5149 6.95837 13.5018C6.95837 15.4887 6.95837 15.4887 7.47831 16.9788C7.81651 17.9481 7.93472 18.9174 7.2606 19.75" stroke="var(--stroke-0, #008C99)" stroke-width="1.5" stroke-linejoin="round"/>
<path id="Vector_3" d="M20.75 12.2023C19.8629 11.6911 18.75 11.4808 17.6234 12.2905C15.4677 13.8398 13.9814 12.556 13.3119 13.8389C12.3265 15.7275 15.8457 16.3211 12.75 20.75" stroke="var(--stroke-0, #008C99)" stroke-width="1.5" stroke-linejoin="round"/>
</g>
</svg>
