<svg preserveAspectRatio="none" width="100%" height="100%" overflow="visible" style="display: block;" viewBox="0 0 13.6667 14.3333" fill="none" xmlns="http://www.w3.org/2000/svg">
<g id="elements">
<path id="Star 20" d="M5.74905 1.32602C6.11179 0.874249 6.29315 0.648361 6.50952 0.56218C6.71766 0.479273 6.94901 0.479273 7.15715 0.56218C7.37351 0.648361 7.55488 0.874249 7.91761 1.32602C8.11961 1.57761 8.22061 1.70341 8.34674 1.78279C8.46883 1.85963 8.6075 1.9052 8.75081 1.91557C8.89887 1.92629 9.05537 1.88392 9.36838 1.79919C9.91901 1.65014 10.1943 1.57561 10.4147 1.63049C10.6404 1.68668 10.8352 1.83053 10.9573 2.03105C11.0766 2.22692 11.0911 2.51168 11.1203 3.0812C11.1366 3.39947 11.1447 3.55861 11.1984 3.69589C11.2536 3.83713 11.3432 3.96187 11.4589 4.05845C11.5712 4.15232 11.7193 4.2094 12.0155 4.32356C12.5421 4.52655 12.8054 4.62804 12.952 4.80074C13.1072 4.98356 13.1834 5.22202 13.1636 5.46247C13.1448 5.68959 12.9918 5.9264 12.6857 6.40003C12.5151 6.66405 12.4297 6.79606 12.393 6.93739C12.3539 7.08767 12.3539 7.24566 12.393 7.39595C12.4297 7.53728 12.5151 7.66929 12.6857 7.93331C12.9918 8.40693 13.1448 8.64374 13.1636 8.87087C13.1834 9.11132 13.1072 9.34977 12.952 9.5326C12.8054 9.70529 12.5421 9.80679 12.0155 10.0098C11.7193 10.1239 11.5712 10.181 11.4589 10.2749C11.3432 10.3715 11.2536 10.4962 11.1984 10.6374C11.1447 10.7747 11.1366 10.9339 11.1203 11.2521C11.0911 11.8217 11.0766 12.1064 10.9573 12.3023C10.8352 12.5028 10.6404 12.6466 10.4147 12.7028C10.1943 12.7577 9.91901 12.6832 9.36838 12.5341C9.05537 12.4494 8.89887 12.407 8.75081 12.4178C8.6075 12.4281 8.46883 12.4737 8.34674 12.5505C8.22061 12.6299 8.11961 12.7557 7.91761 13.0073C7.55488 13.4591 7.37351 13.685 7.15715 13.7712C6.94901 13.8541 6.71766 13.8541 6.50952 13.7712C6.29315 13.685 6.11179 13.4591 5.74905 13.0073C5.54705 12.7557 5.44605 12.6299 5.31992 12.5505C5.19784 12.4737 5.05916 12.4281 4.91585 12.4178C4.7678 12.407 4.61129 12.4494 4.29829 12.5341C3.74765 12.6832 3.47234 12.7577 3.25194 12.7028C3.02631 12.6466 2.83147 12.5028 2.70937 12.3023C2.5901 12.1064 2.57552 11.8217 2.54636 11.2521C2.53007 10.9339 2.52192 10.7747 2.46825 10.6374C2.41304 10.4962 2.32343 10.3715 2.2078 10.2749C2.09542 10.181 1.94734 10.1239 1.65118 10.0098C1.1246 9.80679 0.861312 9.70529 0.714694 9.5326C0.559476 9.34977 0.483227 9.11132 0.503101 8.87087C0.521873 8.64374 0.67491 8.40693 0.980985 7.93331C1.15161 7.66929 1.23692 7.53728 1.27367 7.39595C1.31274 7.24566 1.31274 7.08767 1.27367 6.93739C1.23692 6.79606 1.15161 6.66405 0.980985 6.40003C0.67491 5.9264 0.521873 5.68959 0.503101 5.46247C0.483227 5.22202 0.559476 4.98356 0.714694 4.80074C0.861312 4.62804 1.1246 4.52655 1.65118 4.32356C1.94734 4.2094 2.09542 4.15232 2.2078 4.05845C2.32343 3.96187 2.41304 3.83713 2.46825 3.69589C2.52192 3.55861 2.53007 3.39947 2.54636 3.0812C2.57552 2.51168 2.5901 2.22692 2.70937 2.03105C2.83147 1.83053 3.02631 1.68668 3.25194 1.63049C3.47234 1.57561 3.74765 1.65014 4.29829 1.79919C4.61129 1.88392 4.7678 1.92629 4.91585 1.91557C5.05916 1.9052 5.19784 1.85963 5.31992 1.78279C5.44605 1.70341 5.54705 1.57761 5.74905 1.32602Z" stroke="var(--stroke-0, #008C99)" stroke-linejoin="round"/>
<path id="Vector 6664" d="M4.83333 8.05556C4.83333 8.05556 5.41667 8.05556 6 9.16667C6 9.16667 7.85294 6.38889 9.5 5.83333" stroke="var(--stroke-0, #008C99)" stroke-linecap="round" stroke-linejoin="round"/>
</g>
</svg>
