<svg preserveAspectRatio="none" width="100%" height="100%" overflow="visible" style="display: block;" viewBox="0 0 24 24" fill="none" xmlns="http://www.w3.org/2000/svg">
<g id="Grupo 10777" transform="translate(8.18 8.03)">
<path d="M7.71106 1.09174C6.6069 0.489253 5.31164 0.33993 4.0994 0.675543C2.88717 1.01116 1.85308 1.8056 1.21598 2.89016C-1.23984 6.99062 3.40028 14.3168 3.51712 14.3947" stroke="var(--stroke-0, #737373)" stroke-linecap="round" stroke-linejoin="round"/>
<path d="M13.2761 4.42297C14.3246 5.116 15.0639 6.18819 15.3388 7.41456C15.6137 8.64093 15.4028 9.92628 14.7505 11.0005C12.3025 15.0888 3.63757 14.4643 3.51183 14.3953" stroke="var(--stroke-0, #737373)" stroke-linecap="round" stroke-linejoin="round"/>
<path d="M9.7518 4.00136C9.64184 3.39792 9.40251 2.82567 9.05022 2.32355C8.69794 1.82143 8.24107 1.40108 7.71105 1.09236" stroke="var(--stroke-0, #737373)" stroke-linecap="round" stroke-linejoin="round"/>
<path d="M9.75176 4.00175C10.3343 3.80998 10.9517 3.7485 11.5606 3.82136C12.1695 3.89423 12.755 4.09958 13.2758 4.42338" stroke="var(--stroke-0, #737373)" stroke-linecap="round" stroke-linejoin="round"/>
</g>
<g id="Caminho 22381" transform="translate(0.86 2.0)">
<path d="M13.9561 6.66185C14.3185 5.75837 14.4034 4.7678 14.1998 3.81588C13.9464 2.73178 13.2816 1.78838 12.3459 1.18507C11.4102 0.581756 10.2768 0.365447 9.1847 0.58197C8.65707 0.703157 8.16201 0.937528 7.73377 1.26874C7.30554 1.59995 6.95434 2.02079 6.7044 2.50102C6.26146 2.18723 5.75531 1.97401 5.22138 1.87619C4.68744 1.77836 4.1386 1.79742 3.61318 1.93378C2.54239 2.23484 1.6314 2.9423 1.0742 3.90498C0.516994 4.86767 0.357592 6.01044 0.629923 7.0889C1.36211 10.1267 5.6239 11.8734 7.85718 12.5733" stroke="var(--stroke-0, #737373)" stroke-linecap="round" stroke-linejoin="round"/>
</g>
</svg>
