<svg preserveAspectRatio="none" width="100%" height="100%" overflow="visible" style="display: block;" viewBox="9.5 9.5 24 24" fill="none" xmlns="http://www.w3.org/2000/svg">
<path id="Union" d="M26.166 22.4487C28.2252 22.9641 29.4999 24.0671 29.5 26.3179C29.5 28.2526 27.7346 30.2153 25.6006 30.2153H18.5195L26.166 22.4487ZM25.5361 12.7915C29.3531 12.7918 30.5776 17.2295 28.2744 19.5327C26.9249 20.9046 25.4555 22.302 17.6602 30.2144H17.4629C15.815 30.2485 14.3252 29.2383 13.7471 27.6948C13.1691 26.1514 13.6289 24.4118 14.8936 23.355L25.2871 12.7915H25.5361ZM24.4209 12.7847L16.6045 20.6577C14.7926 20.1878 13.5273 18.5524 13.5273 16.6812C13.544 14.5262 15.2942 12.7873 17.4492 12.7847H24.4209Z" fill="var(--fill-0, #737373)"/>
</svg>
