<svg preserveAspectRatio="none" width="100%" height="100%" overflow="visible" style="display: block;" viewBox="9.5 9.5 24 24" fill="none" xmlns="http://www.w3.org/2000/svg">
<g id="Grupo 12281">
<path id="Union" d="M22.3027 12.8297C22.9166 12.8297 23.5063 13.0743 23.9404 13.5084L26.5078 16.0758C26.9416 16.5098 27.1855 17.0989 27.1855 17.7125V21.4996C27.1855 21.7758 26.9617 21.9996 26.6855 21.9996C26.4095 21.9995 26.1855 21.7757 26.1855 21.4996V17.7125C26.1855 17.3645 26.0467 17.0297 25.7998 16.7828L23.2334 14.2155C22.9866 13.9687 22.6512 13.8297 22.3027 13.8297H15.792C15.0652 13.8298 14.4767 14.4183 14.4766 15.1451V27.8541C14.4766 28.581 15.0651 29.1704 15.792 29.1705H20.3311C20.6072 29.1705 20.8311 29.3944 20.8311 29.6705C20.8309 29.9465 20.6071 30.1705 20.3311 30.1705H15.792C14.5128 30.1704 13.4766 29.1333 13.4766 27.8541V15.1451C13.4767 13.866 14.5129 12.8298 15.792 12.8297H22.3027ZM18.5156 23.7233C18.7916 23.7234 19.0155 23.9473 19.0156 24.2233C19.0156 24.4993 18.7917 24.7231 18.5156 24.7233H16.7002C16.4241 24.7233 16.2002 24.4994 16.2002 24.2233C16.2004 23.9473 16.4242 23.7233 16.7002 23.7233H18.5156ZM24.0635 21.0104C24.2912 21.0571 24.4629 21.2591 24.4629 21.5006C24.4627 21.742 24.2911 21.9442 24.0635 21.9908L23.9629 22.0006H16.7002C16.4242 22.0006 16.2004 21.7765 16.2002 21.5006C16.2002 21.2245 16.4241 21.0006 16.7002 21.0006H23.9629L24.0635 21.0104ZM24.0635 18.2867C24.2912 18.3335 24.4629 18.5354 24.4629 18.777C24.4628 19.0184 24.2912 19.2205 24.0635 19.2672L23.9629 19.277H16.7002C16.4241 19.277 16.2003 19.053 16.2002 18.777C16.2002 18.5008 16.4241 18.277 16.7002 18.277H23.9629L24.0635 18.2867Z" fill="var(--fill-0, #737373)"/>
<path id="Elipse 512" fill-rule="evenodd" clip-rule="evenodd" d="M25.7789 28.1576C26.2803 28.1576 26.6867 27.7511 26.6867 27.2498C26.6867 26.7484 26.2803 26.3419 25.7789 26.3419C25.2775 26.3419 24.8711 26.7484 24.8711 27.2498C24.8711 27.7511 25.2775 28.1576 25.7789 28.1576Z" stroke="var(--stroke-0, #737373)" stroke-linecap="round" stroke-linejoin="round"/>
<path id="Caminho 22750" fill-rule="evenodd" clip-rule="evenodd" d="M22.0823 27.4439C22.0168 27.3228 22.0168 27.1755 22.0823 27.055C22.8699 25.599 24.3241 24.337 25.7776 24.337C27.2317 24.337 28.6858 25.599 29.4734 27.055C29.5389 27.1755 29.5389 27.3228 29.4734 27.4439C28.6858 28.8999 27.2317 30.1619 25.7776 30.1619C24.3241 30.1619 22.8699 28.8999 22.0823 27.4439Z" stroke="var(--stroke-0, #737373)" stroke-linecap="round" stroke-linejoin="round"/>
</g>
</svg>
