<svg preserveAspectRatio="none" width="100%" height="100%" overflow="visible" style="display: block;" viewBox="0 0 24 24" fill="none" xmlns="http://www.w3.org/2000/svg">
<g id="Grupo 11310">
<g id="Grupo 11309">
<path id="Ret&#226;ngulo 4134" d="M15 10C15 8.34315 13.6569 7 12 7C10.3431 7 9 8.34315 9 10C9 11.6569 10.3431 13 12 13C13.6569 13 15 11.6569 15 10Z" stroke="var(--stroke-0, #737373)" stroke-linecap="round" stroke-linejoin="round"/>
<path id="Caminho 22554" d="M12 21C12 21 5 15.25 5 10C5 8.14348 5.73754 6.36305 7.05029 5.05029C8.36305 3.73754 10.1435 3 12 3C13.8565 3 15.637 3.73754 16.9497 5.05029C18.2625 6.36305 19 8.14348 19 10C19 15.25 12 21 12 21Z" stroke="var(--stroke-0, #737373)" stroke-linecap="round" stroke-linejoin="round"/>
</g>
</g>
</svg>
