<svg width="100%" height="100%" viewBox="0 0 24 24" fill="none" xmlns="http://www.w3.org/2000/svg">
<path fill-rule="evenodd" clip-rule="evenodd" fill="#404040" d="M18.0976 9.45454C18.0048 9.52655 16.3663 10.4498 16.3663 12.5028C16.3663 14.8775 18.4513 15.7175 18.5137 15.7383C18.5041 15.7895 18.1824 16.8888 17.4144 18.009C16.7295 18.9946 16.0142 19.9787 14.9261 19.9787C13.838 19.9787 13.558 19.3467 12.3019 19.3467C11.0777 19.3467 10.6425 19.9995 9.64721 19.9995C8.65191 19.9995 7.95745 19.0875 7.15897 17.9673C6.23409 16.652 5.48682 14.6086 5.48682 12.6692C5.48682 9.55855 7.50941 7.90879 9.5 7.90879C10.5577 7.90879 11.4394 8.60326 12.1034 8.60326C12.7355 8.60326 13.7212 7.86719 14.9245 7.86719C15.3806 7.86719 17.0191 7.90879 18.0976 9.45454H18.0976Z"/>
<path fill-rule="evenodd" clip-rule="evenodd" fill="#404040" d="M14.3531 6.55065C14.8508 5.96019 15.2028 5.14091 15.2028 4.32163C15.2028 4.20802 15.1932 4.09281 15.1724 4C14.3627 4.0304 13.3994 4.53925 12.8186 5.21292C12.3625 5.73137 11.9369 6.55065 11.9369 7.38112C11.9369 7.50593 11.9577 7.63074 11.9673 7.67075C12.0185 7.68035 12.1017 7.69155 12.1849 7.69155C12.9114 7.69155 13.8251 7.20511 14.3531 6.55065H14.3531Z"/>
</svg>
