<svg preserveAspectRatio="none" width="100%" height="100%" overflow="visible" style="display: block;" viewBox="0 0 24 24" fill="none" xmlns="http://www.w3.org/2000/svg">
<g id="Grupo 10783">
<g id="Grupo 10782">
<path id="Elipse 446" d="M19.362 12.9776C20.4793 12.9776 21.385 12.0719 21.385 10.9546C21.385 9.83737 20.4793 8.93164 19.362 8.93164C18.2447 8.93164 17.339 9.83737 17.339 10.9546C17.339 12.0719 18.2447 12.9776 19.362 12.9776Z" stroke="var(--stroke-0, #008C99)" stroke-width="1.5" stroke-linecap="round" stroke-linejoin="round"/>
<path id="Elipse 447" d="M12 11.23C13.7204 11.23 15.115 9.83537 15.115 8.115C15.115 6.39463 13.7204 5 12 5C10.2796 5 8.88501 6.39463 8.88501 8.115C8.88501 9.83537 10.2796 11.23 12 11.23Z" stroke="var(--stroke-0, #008C99)" stroke-width="1.5" stroke-linecap="round" stroke-linejoin="round"/>
<path id="Elipse 448" d="M4.63799 12.9776C5.75526 12.9776 6.66099 12.0719 6.66099 10.9546C6.66099 9.83737 5.75526 8.93164 4.63799 8.93164C3.52072 8.93164 2.61499 9.83737 2.61499 10.9546C2.61499 12.0719 3.52072 12.9776 4.63799 12.9776Z" stroke="var(--stroke-0, #008C99)" stroke-width="1.5" stroke-linecap="round" stroke-linejoin="round"/>
<path id="Caminho 22382" d="M23 19V17.9004C23 17.2373 22.7366 16.6017 22.2678 16.1328C21.7989 15.664 21.163 15.4004 20.5 15.4004H19.7" stroke="var(--stroke-0, #008C99)" stroke-width="1.5" stroke-linecap="round" stroke-linejoin="round"/>
<path id="Caminho 22383" d="M1 19V17.9004C1 17.2373 1.2634 16.6017 1.73224 16.1328C2.20108 15.664 2.83696 15.4004 3.5 15.4004H4.29999" stroke="var(--stroke-0, #008C99)" stroke-width="1.5" stroke-linecap="round" stroke-linejoin="round"/>
<path id="Caminho 22384" d="M17.339 19V17.4004C17.339 16.4721 16.9703 15.5822 16.3139 14.9258C15.6575 14.2694 14.7672 13.9004 13.839 13.9004H10.16C9.23172 13.9004 8.3415 14.2694 7.68512 14.9258C7.02874 15.5822 6.65997 16.4721 6.65997 17.4004V19" stroke="var(--stroke-0, #008C99)" stroke-width="1.5" stroke-linecap="round" stroke-linejoin="round"/>
</g>
<g id="Ret&#195;&#162;ngulo 4017">
</g>
</g>
</svg>
