<svg width="100%" height="100%" viewBox="0 0 24 24" fill="none" xmlns="http://www.w3.org/2000/svg">
<path
      fill-rule="evenodd"
      clip-rule="evenodd"
      fill="var(--stroke-0, #737373)"
      d="M19.5 7.36182C19.5 7.07444 19.386 6.79859 19.1826 6.59521C19.0048 6.41737 18.7715 6.3074 18.5234 6.28271L18.416 6.27783H5.58301C5.29557 6.2781 5.02029 6.39223 4.81738 6.59521C4.61422 6.79849 4.5 7.07443 4.5 7.36182C4.50004 7.5391 4.54312 7.71422 4.62598 7.87061C4.70861 8.02648 4.82846 8.15978 4.97461 8.25928H4.97559L10.1831 11.789C10.2317 11.8113 10.2774 11.8417 10.3182 11.8804C10.8183 12.2117 11.4053 12.3881 12.0059 12.3882C12.6013 12.3882 13.1839 12.2149 13.6812 11.8891C13.724 11.848 13.7723 11.8159 13.8237 11.793L19.0244 8.26807C19.1706 8.16893 19.2909 8.03512 19.374 7.87842C19.457 7.72189 19.5 7.54748 19.5 7.37061V7.36182ZM13.9589 12.888C13.3622 13.2155 12.6904 13.3882 12.0059 13.3882C11.3174 13.3881 10.6422 13.2133 10.0431 12.8821L5.29685 17.6283C5.44808 17.6899 5.61108 17.7225 5.77734 17.7226H18.2227C18.3879 17.7225 18.5499 17.6903 18.7004 17.6294L13.9589 12.888ZM19.4072 16.9222L14.8145 12.3295L19.5 9.15378V16.4443C19.5 16.6096 19.4679 16.7718 19.4072 16.9222ZM4.20982 18.0963C4.6323 18.4973 5.19325 18.7225 5.77734 18.7226H18.2227C18.8267 18.7225 19.406 18.4816 19.833 18.0546C20.26 17.6275 20.5 17.0483 20.5 16.4443V7.5556C20.5 7.5349 20.4987 7.51449 20.4963 7.49445C20.4988 7.45329 20.5 7.41199 20.5 7.37061V7.36182C20.5 6.80899 20.2804 6.27893 19.8896 5.88818C19.5477 5.54624 19.0992 5.33498 18.6221 5.2876L18.416 5.27783H5.58301C5.03084 5.27814 4.50106 5.4974 4.11035 5.88818C3.71978 6.27898 3.5 6.80931 3.5 7.36182C3.5 7.40521 3.50136 7.44853 3.50404 7.49172C3.50138 7.51264 3.5 7.53396 3.5 7.5556V16.4443C3.5 17.0262 3.72276 17.585 4.12079 18.007C4.13369 18.0237 4.14779 18.0398 4.16309 18.0551C4.17799 18.07 4.19361 18.0837 4.20982 18.0963ZM4.59165 16.9195L9.18832 12.3228L4.5 9.14499V16.4443C4.5 16.6086 4.53168 16.7698 4.59165 16.9195Z"
    />
</svg>
