<svg width="100%" height="100%" viewBox="0 0 24 24" fill="none" xmlns="http://www.w3.org/2000/svg">
<path fill="#0866FF" d="M20 12.0293C20 7.61106 16.4182 4.0293 12 4.0293C7.58176 4.0293 4 7.61106 4 12.0293C4 15.781 6.58304 18.9291 10.0675 19.7938V14.4741H8.4176V12.0293H10.0675V10.9759C10.0675 8.25298 11.2995 6.9909 13.9715 6.9909C14.4784 6.9909 15.353 7.0901 15.7107 7.18962V9.4053C15.5219 9.38546 15.1939 9.37554 14.7866 9.37554C13.4746 9.37554 12.968 9.8725 12.968 11.1643V12.0283H15.584L15.136 14.4731H12.9693V19.9707C16.9302 19.4923 20 16.1195 20 12.0293Z"/>
</svg>
