<svg width="100%" height="100%" viewBox="0 0 24 24" fill="none" xmlns="http://www.w3.org/2000/svg">
<path fill="#FFC107" d="M19.8441 10.4321H19.2001V10.4001H12.0001V13.6001H16.5201C16.173 14.5679 15.5243 15.3986 14.6695 15.97C13.8147 16.5414 12.7991 16.8232 11.7721 16.774C10.7452 16.7248 9.76113 16.3471 8.96494 15.6966C8.16875 15.046 7.60249 14.1571 7.34952 13.1605C7.09655 12.164 7.17025 11.1125 7.55976 10.161C7.94928 9.20951 8.63403 8.40821 9.51318 7.87512C10.3923 7.34203 11.4194 7.10531 12.4432 7.19983C13.467 7.29434 14.4334 7.71509 15.2001 8.40013L17.4641 6.13613C16.1213 4.88048 14.3869 4.12564 12.5529 3.99862C10.7188 3.87159 8.89699 4.38013 7.39387 5.43867C5.89076 6.49721 4.79809 8.04116 4.2997 9.81076C3.80131 11.5804 3.92762 13.4676 4.65737 15.155C5.38712 16.8424 6.67578 18.227 8.30655 19.0758C9.93731 19.9246 11.8107 20.1858 13.6114 19.8155C15.4122 19.4453 17.0305 18.4661 18.194 17.0427C19.3576 15.6193 19.9954 13.8386 20.0001 12.0001C19.9991 11.4736 19.9469 10.9485 19.8441 10.4321Z"/>
<path fill="#FF3D00" d="M4.92407 8.27637L7.55207 10.2044C7.83819 9.48867 8.29245 8.8524 8.87643 8.34936C9.46042 7.84632 10.157 7.49131 10.9071 7.31436C11.6573 7.13741 12.4391 7.14371 13.1863 7.33275C13.9336 7.52178 14.6243 7.88798 15.2001 8.40037L17.4641 6.13637C16.5635 5.29721 15.4814 4.67719 14.3021 4.32455C13.1227 3.97192 11.8779 3.89619 10.6645 4.10327C9.45112 4.31034 8.30187 4.79462 7.30621 5.51843C6.31056 6.24223 5.49537 7.18603 4.92407 8.27637Z"/>
<path fill="#4CAF50" d="M12.0001 20.0001C13.9842 19.9997 15.8968 19.2595 17.3641 17.9241L14.8881 15.8281C14.2877 16.2796 13.5898 16.5838 12.8504 16.7163C12.111 16.8489 11.3508 16.806 10.631 16.5913C9.9112 16.3765 9.25184 15.9958 8.70598 15.4797C8.16011 14.9637 7.74298 14.3267 7.48813 13.6201L4.88013 15.6201C5.54768 16.9357 6.566 18.0411 7.82254 18.8141C9.07907 19.587 10.5249 19.9975 12.0001 20.0001Z"/>
<path fill="#1976D2" d="M19.8441 10.4324H19.2001V10.4004H12.0001V13.6004H16.5201C16.2061 14.4869 15.6386 15.2616 14.8881 15.8284L17.3641 17.9244C18.2055 17.1861 18.8769 16.2743 19.332 15.2516C19.7871 14.2289 20.015 13.1197 20.0001 12.0004C19.9991 11.4739 19.9469 10.9488 19.8441 10.4324Z"/>
</svg>
