<svg preserveAspectRatio="none" width="100%" height="100%" overflow="visible" style="display: block;" viewBox="0 0 16 16" fill="none" xmlns="http://www.w3.org/2000/svg">
<g id="Grupo 11310">
<g id="Ret&#195;&#162;ngulo 4133">
</g>
<g id="Grupo 11309">
<path id="Ret&#195;&#162;ngulo 4134" d="M9.99996 6.66667C9.99996 5.5621 9.10453 4.66667 7.99996 4.66667C6.89539 4.66667 5.99996 5.5621 5.99996 6.66667C5.99996 7.77124 6.89539 8.66667 7.99996 8.66667C9.10453 8.66667 9.99996 7.77124 9.99996 6.66667Z" stroke="var(--stroke-0, #008C99)" stroke-linecap="round" stroke-linejoin="round"/>
<path id="Caminho 22554" d="M8 14C8 14 3.33333 10.1667 3.33333 6.66667C3.33333 5.42899 3.82503 4.24203 4.7002 3.36686C5.57536 2.49169 6.76232 2 8 2C9.23768 2 10.4246 2.49169 11.2998 3.36686C12.175 4.24203 12.6667 5.42899 12.6667 6.66667C12.6667 10.1667 8 14 8 14Z" stroke="var(--stroke-0, #008C99)" stroke-linecap="round" stroke-linejoin="round"/>
</g>
</g>
</svg>
