<svg width="100%" height="100%" viewBox="0 0 24 24" fill="none" xmlns="http://www.w3.org/2000/svg">
<path
      stroke="var(--stroke-0, #737373)"
      stroke-linecap="round"
      stroke-linejoin="round"
      d="M12.0001 16.5253V14.2222M12.0001 14.2222C12.3682 14.2222 12.6667 13.9237 12.6667 13.5556C12.6667 13.1874 12.3682 12.8889 12.0001 12.8889C11.6319 12.8889 11.3334 13.1874 11.3334 13.5556C11.3334 13.9237 11.6319 14.2222 12.0001 14.2222ZM8.4445 9.33333V7.55556C8.4445 6.61256 8.8191 5.70759 9.48589 5.0408C10.1527 4.374 11.0571 4 12.0001 4C12.943 4 13.8474 4.374 14.5142 5.0408C15.181 5.70759 15.5556 6.61256 15.5556 7.55556V9.33333M7.55561 9.33333H16.4445C17.4263 9.33333 18.2223 10.1293 18.2223 11.1111V18.2222C18.2223 19.2041 17.4263 20 16.4445 20H7.55561C6.57377 20 5.77783 19.2041 5.77783 18.2222V11.1111C5.77783 10.1293 6.57377 9.33333 7.55561 9.33333Z"
    />
</svg>
