<svg width="24" height="24" viewBox="0 0 24 24" fill="none" xmlns="http://www.w3.org/2000/svg">
  <!-- Reconstructed from Figma node 118:11003 "Iconografia Padrão - Zupper" (Pedidos icon),
       fileKey CRJYlaF0ep3mKL5fwH3e31. Base group (Grupo 8263 / Retângulo 527) is an empty
       placeholder in Figma; the visible icon is these 8 vector fragments. Fragments are placed
       with <g transform="translate(...)"> — svgr/SVGO bakes the translate into the path coords so
       the generated atom is a single flat <Svg> (NOT nested <svg x= y=>, which react-native-svg /
       react-native-web position incorrectly and which leak width/height via {...props}). -->
  <g stroke="#2E2E2E" stroke-linecap="round" stroke-linejoin="round">
    <!-- Retângulo 528: outer rounded-rect ticket outline -->
    <path transform="translate(6.5 1.5)" d="M11.5 0.5H2.5C1.39543 0.5 0.5 1.39543 0.5 2.5V15.5C0.5 16.6046 1.39543 17.5 2.5 17.5H11.5C12.6046 17.5 13.5 16.6046 13.5 15.5V2.5C13.5 1.39543 12.6046 0.5 11.5 0.5Z"/>
    <!-- Caminho 5728: inner open outline (second, offset ticket) -->
    <path transform="translate(3.5 5.5)" d="M3.5 0.5H2.5C1.96957 0.5 1.46089 0.710376 1.08582 1.08545C0.710743 1.46052 0.5 1.96957 0.5 2.5V14.5C0.5 15.0304 0.710743 15.539 1.08582 15.9141C1.46089 16.2891 1.96957 16.5 2.5 16.5H11.5C12.0304 16.5 12.5391 16.2891 12.9142 15.9141C13.2893 15.539 13.5 15.0304 13.5 14.5V13.5"/>
    <!-- Caminho 5727: large chevron (arrowhead, outer) -->
    <path transform="translate(10 11.01)" d="M6.50001 2.98633L3.52602 0.5L0.500014 2.98633"/>
    <!-- Grupo 8257 / Caminho 5726: small chevron (arrowhead, inner) -->
    <path transform="translate(12 14.61)" d="M2.50001 1.39014L1.52601 0.5L0.500008 1.39014"/>
    <!-- Linha 112: arrow shaft -->
    <path transform="translate(12.987 8.5)" d="M0.526 6.61L0.5 0.5"/>
    <!-- Shape 3077 x4: perforation dots -->
    <path transform="translate(8.865 5.505)" d="M0.5 0.5H0.505005H0.51001"/>
    <path transform="translate(11.615 5.505)" d="M0.5 0.5H0.505005H0.51001"/>
    <path transform="translate(14.37 5.505)" d="M0.5 0.5H0.505005H0.51001"/>
    <path transform="translate(17.125 5.505)" d="M0.5 0.5H0.505005H0.51001"/>
  </g>
</svg>
