<svg width="72" height="72" viewBox="0 0 72 72" fill="none" xmlns="http://www.w3.org/2000/svg">
  <!-- Figma node 71:6528 "status-pedidos" (modal "Foto/Dica/Roteiro publicada"),
       fileKey CRJYlaF0ep3mKL5fwH3e31. O export por node vem com dois artefatos que
       foram removidos aqui: um <rect> #1E1E1E de fundo do canvas e o retângulo
       branco do próprio modal. O grupo interno ainda se chama "clock" — resquício
       do instance-swap no Figma; o desenho de fato é o check. Sobra o ícone:
       disco claro + anel e check em #44BA68 (= tokens colors.feedback.success). -->
  <path d="M36 72C55.8 72 72 55.8 72 36C72 16.2 55.8 0 36 0C16.2 0 0 16.2 0 36C0 55.8 16.2 72 36 72Z" fill="#D5EDDD"/>
  <path d="M59 35.9999C59 23.3042 48.6957 12.9999 36 12.9999C23.3043 12.9999 13 23.3042 13 35.9999C13 48.6957 23.3043 58.9999 36 58.9999C48.6957 58.9999 59 48.6957 59 35.9999ZM61 35.9999C61 49.8002 49.8003 60.9999 36 60.9999C22.1997 60.9999 11 49.8002 11 35.9999C11 22.1997 22.1997 10.9999 36 10.9999C49.8003 10.9999 61 22.1997 61 35.9999Z" fill="#44BA68"/>
  <path d="M27.1992 36L33.0598 41.8606L44.8018 30.1394" stroke="#44BA68" stroke-width="2" stroke-linecap="round" stroke-linejoin="round"/>
</svg>
