<svg preserveAspectRatio="none" width="100%" height="100%" overflow="visible" style="display: block;" viewBox="0 0 14.3333 13" fill="none" xmlns="http://www.w3.org/2000/svg">
<g id="elements">
<path id="Vector" d="M2.66897 1.29723L1.85039 1.77208C1.19159 2.15425 0.862194 2.34533 0.681098 2.66322C0.500001 2.9811 0.500001 3.36822 0.500001 4.14245V9.58553C0.500001 10.6028 0.500001 11.1115 0.728176 11.3945C0.880005 11.5829 1.09277 11.7095 1.328 11.7515C1.68151 11.8146 2.11432 11.5635 2.97992 11.0614C3.56771 10.7204 4.13341 10.3663 4.83658 10.4623C5.15644 10.506 5.46154 10.6577 6.07173 10.9611L8.61433 12.2254C9.16429 12.4988 9.16931 12.5 9.7809 12.5H11.1667C12.4237 12.5 13.0523 12.5 13.4428 12.1009C13.8333 11.7017 13.8333 11.0593 13.8333 9.77445V5.28098C13.8333 3.99615 13.8333 3.35373 13.4428 2.95459C13.0523 2.55544 12.4237 2.55544 11.1667 2.55544H9.7809C9.16931 2.55544 9.16429 2.55426 8.61433 2.2808L6.39325 1.17642C5.46589 0.715312 5.00221 0.484758 4.50825 0.500781C4.01429 0.516804 3.56585 0.776944 2.66897 1.29723Z" stroke="var(--stroke-0, #A3A3A3)" stroke-linecap="round" stroke-linejoin="round"/>
<path id="Vector 7196" d="M9.16667 2.83333V12.1667" stroke="var(--stroke-0, #A3A3A3)" stroke-linecap="round" stroke-linejoin="round" stroke-dasharray="1 3"/>
<path id="Vector 7197" d="M4.5 0.833333V10.1667" stroke="var(--stroke-0, #A3A3A3)" stroke-linecap="round" stroke-linejoin="round" stroke-dasharray="1 3"/>
</g>
</svg>
