<svg width="100%" height="100%" viewBox="0 0 24 24" fill="none" xmlns="http://www.w3.org/2000/svg">
<path
      stroke="var(--stroke-0, #737373)"
      stroke-linecap="round"
      stroke-linejoin="round"
      d="M14 5H18C18.5304 5 19.0391 5.21086 19.4142 5.58594C19.7893 5.96101 20 6.46957 20 7V20C20 20.5304 19.7893 21.039 19.4142 21.4141C19.0391 21.7891 18.5304 22 18 22H6C5.46957 22 4.96086 21.7891 4.58578 21.4141C4.21071 21.039 4 20.5304 4 20V7C4 6.46957 4.21071 5.96101 4.58578 5.58594C4.96086 5.21086 5.46957 5 6 5H10M15.594 19C15.4193 18.5617 15.1491 18.1685 14.803 17.8477C14.2164 17.3031 13.4454 16.9998 12.645 17H11.354C10.5535 16.9998 9.78266 17.3031 9.19601 17.8477C8.84994 18.1684 8.57971 18.5617 8.405 19M14.249 12.25C14.249 13.4926 13.2416 14.5 11.999 14.5C10.7564 14.5 9.74899 13.4926 9.74899 12.25C9.74899 11.0074 10.7564 10 11.999 10C13.2416 10 14.249 11.0074 14.249 12.25ZM10.999 2H12.999C13.5513 2 13.999 2.44772 13.999 3V6C13.999 6.55228 13.5513 7 12.999 7H10.999C10.4467 7 9.99899 6.55228 9.99899 6V3C9.99899 2.44772 10.4467 2 10.999 2Z"
    />
</svg>
