<svg preserveAspectRatio="none" width="100%" height="100%" overflow="visible" style="display: block;" viewBox="9.5 9.5 24 24" fill="none" xmlns="http://www.w3.org/2000/svg">
<path id="Union" d="M23.1719 11.9998C23.8346 11.9998 24.4708 12.2635 24.9395 12.7322L27.7676 15.5603C28.236 16.0288 28.4999 16.6644 28.5 17.3269V21.4998C28.5 21.7759 28.2761 21.9998 28 21.9998C27.7239 21.9998 27.5 21.7759 27.5 21.4998V17.3269C27.4999 16.9302 27.3418 16.5486 27.0605 16.2673L24.2324 13.4392C23.9511 13.1579 23.5692 12.9998 23.1719 12.9998H16C15.1712 12.9998 14.5 13.6709 14.5 14.4998V28.4998C14.5 29.3286 15.1712 29.9998 16 29.9998H21C21.2761 29.9998 21.5 30.2236 21.5 30.4998C21.5 30.7759 21.2761 30.9998 21 30.9998H16C14.6189 30.9998 13.5 29.8809 13.5 28.4998V14.4998C13.5 13.1186 14.6189 11.9998 16 11.9998H23.1719ZM25.6533 24.2742C26.1998 24.077 26.7992 24.0771 27.3457 24.2742L29.1689 24.9294C29.3673 25.0008 29.5 25.1893 29.5 25.4001V27.5007C29.4998 28.6323 28.7232 29.5107 28.0713 30.0583C27.7332 30.3423 27.3973 30.5637 27.1475 30.7136C27.0221 30.7888 26.9167 30.8466 26.8418 30.8865C26.8043 30.9064 26.7743 30.9226 26.7529 30.9333C26.7424 30.9387 26.7336 30.943 26.7275 30.946C26.7249 30.9474 26.7225 30.9481 26.7207 30.949C26.7198 30.9494 26.7184 30.9496 26.7178 30.95L26.7168 30.9509C26.6142 31.0002 26.4986 31.0127 26.3896 30.988L26.2832 30.9509L26.2822 30.95C26.2816 30.9496 26.2802 30.9494 26.2793 30.949C26.2775 30.9481 26.2751 30.9474 26.2725 30.946C26.2664 30.943 26.2576 30.9387 26.2471 30.9333C26.2257 30.9226 26.1957 30.9064 26.1582 30.8865C26.0833 30.8466 25.9779 30.7888 25.8525 30.7136C25.6027 30.5637 25.2668 30.3423 24.9287 30.0583C24.2768 29.5107 23.5002 28.6323 23.5 27.5007V25.4001C23.5 25.1893 23.6327 25.0008 23.8311 24.9294L25.6533 24.2732V24.2742ZM27.0068 25.2146C26.6797 25.0966 26.3203 25.0966 25.9932 25.2146H25.9922L24.5 25.7507V27.5007C24.5002 28.1687 24.9734 28.7905 25.5713 29.2927C25.858 29.5336 26.1474 29.7249 26.3662 29.8562C26.4143 29.885 26.4601 29.9088 26.5 29.9314C26.5399 29.9088 26.5857 29.885 26.6338 29.8562C26.8526 29.7249 27.142 29.5336 27.4287 29.2927C28.0266 28.7905 28.4998 28.1687 28.5 27.5007V25.7507L27.0078 25.2146H27.0068ZM19 23.9998C19.2761 23.9998 19.4999 24.2237 19.5 24.4998C19.5 24.7759 19.2761 24.9998 19 24.9998H17C16.7239 24.9998 16.5 24.7759 16.5 24.4998C16.5001 24.2237 16.7239 23.9998 17 23.9998H19ZM25 20.9998C25.2761 20.9998 25.4999 21.2237 25.5 21.4998C25.5 21.7759 25.2761 21.9998 25 21.9998H17C16.7239 21.9998 16.5 21.7759 16.5 21.4998C16.5001 21.2237 16.7239 20.9998 17 20.9998H25ZM25 17.9998C25.2761 17.9998 25.4999 18.2237 25.5 18.4998C25.5 18.7759 25.2761 18.9998 25 18.9998H17C16.7239 18.9998 16.5 18.7759 16.5 18.4998C16.5001 18.2237 16.7239 17.9998 17 17.9998H25Z" fill="var(--fill-0, #737373)"/>
</svg>
