<svg preserveAspectRatio="none" width="100%" height="100%" overflow="visible" style="display: block;" viewBox="0 0 16.9947 17" fill="none" xmlns="http://www.w3.org/2000/svg">
<g id="Grupo 8280">
<path id="Caminho 5736" d="M8.49775 9.56988V9.35637C8.50705 9.07169 8.59219 8.79474 8.74437 8.55397C8.89655 8.3132 9.11025 8.11733 9.3634 7.98678C9.61096 7.85859 9.81992 7.66658 9.96878 7.43087C10.1176 7.19516 10.201 6.92445 10.2104 6.64582C10.2104 6.19172 10.03 5.75616 9.70889 5.43506C9.38779 5.11396 8.95231 4.93339 8.49821 4.93339C8.0441 4.93339 7.6086 5.11396 7.2875 5.43506C6.9664 5.75616 6.786 6.19172 6.786 6.64582" stroke="var(--stroke-0, #404040)" stroke-linecap="round" stroke-linejoin="round"/>
<circle id="Ellipse 1" cx="8.49799" cy="12.1377" r="0.811082" fill="var(--fill-0, #404040)"/>
<path id="Caminho 5738" d="M14.0579 11.2798L15.6461 12.0735C16.471 10.4297 16.7035 8.55157 16.3043 6.75616C15.9052 4.96075 14.8989 3.35773 13.4552 2.21818C12.0115 1.07863 10.2189 0.472224 8.37984 0.500978C6.54083 0.529731 4.76805 1.19202 3.3607 2.37614" stroke="var(--stroke-0, #404040)" stroke-linecap="round" stroke-linejoin="round"/>
<path id="Caminho 5739" d="M2.93768 5.71974L1.34945 4.92515C0.524087 6.56906 0.291244 8.44728 0.690198 10.243C1.08915 12.0387 2.09548 13.6416 3.53929 14.7814C4.98311 15.9211 6.77595 16.5278 8.6152 16.499C10.4544 16.4702 12.2274 15.8074 13.6348 14.623" stroke="var(--stroke-0, #404040)" stroke-linecap="round" stroke-linejoin="round"/>
</g>
</svg>
