<svg width="25" height="25" viewBox="0 0 25 25" fill="none" xmlns="http://www.w3.org/2000/svg">
<path fill="currentColor" fill-rule="evenodd" clip-rule="evenodd" d="M10.627 4.923A2.167 2.167 0 0 0 8.459 7.09v.811H6.163c-1.197 0-2.167.97-2.167 2.167v7.085c0 1.197.97 2.167 2.167 2.167h11.669c1.197 0 2.168-.97 2.168-2.167v-7.085c0-1.197-.97-2.167-2.168-2.167H15.536v-.81a2.167 2.167 0 0 0-2.167-2.168h-2.742Zm5.622 13.397h1.583c.645 0 1.168-.522 1.168-1.167v-7.085c0-.644-.523-1.167-1.168-1.167H16.25v3.585h.75a.5.5 0 0 1 .5.5v2.5a.5.5 0 0 1-.5.5h-.75v2.334Zm-.494-3.334h-2.423v-1.5h3.167v1.5h-.744Zm-.506 1v2.334H8.747V8.901h.195a.514.514 0 0 0 .035 0h6.041a.51.51 0 0 0 .035 0h.196v3.585H12.83a.5.5 0 0 0-.5.5v2.5a.5.5 0 0 0 .5.5h2.418ZM6.163 8.901h1.584v9.42H6.163a1.167 1.167 0 0 1-1.167-1.168v-7.085c0-.644.522-1.167 1.167-1.167Zm8.373-1v-.81a1.167 1.167 0 0 0-1.167-1.168h-2.742A1.167 1.167 0 0 0 9.459 7.09v.811h5.077Z"/>
</svg>
