<svg width="25" height="25" viewBox="0 0 25 25" fill="none" xmlns="http://www.w3.org/2000/svg">
<path fill="currentColor" fill-rule="evenodd" clip-rule="evenodd" d="M10.521 4.119a2.006 2.006 0 0 0-2.006 2.006v1.758h-.253A2.006 2.006 0 0 0 6.257 9.89v7.53c0 1.108.898 2.006 2.005 2.006h.253v.253a.5.5 0 0 0 1 0v-.253h5.024v.253a.5.5 0 1 0 1 0v-.253h.253a2.006 2.006 0 0 0 2.006-2.006v-7.53a2.006 2.006 0 0 0-2.006-2.006h-.253V6.125a2.007 2.007 0 0 0-2.006-2.006h-3.012Zm4.018 3.764V6.125a1.006 1.006 0 0 0-1.006-1.006h-3.012a1.006 1.006 0 0 0-1.006 1.006v1.758h5.024Zm-5.524 1h-.753c-.555 0-1.005.45-1.005 1.006v7.53c0 .555.45 1.006 1.005 1.006h7.53c.555 0 1.006-.45 1.006-1.006v-7.53c0-.555-.45-1.006-1.006-1.006H9.015Zm1.506 1.26a.5.5 0 0 0 0 1h3.012a.5.5 0 1 0 0-1h-3.012Zm1.506 2.258a.5.5 0 0 1 .5.5v3.765a.5.5 0 1 1-1 0V12.9a.5.5 0 0 1 .5-.5Zm-2.512.5a.5.5 0 0 0-1 0v3.765a.5.5 0 1 0 1 0V12.9Zm5.524-.5a.5.5 0 0 1 .5.5v3.765a.5.5 0 1 1-1 0V12.9a.5.5 0 0 1 .5-.5Z"/>
</svg>
