<svg width="25" height="25" viewBox="0 0 25 25" fill="none" xmlns="http://www.w3.org/2000/svg">
<path fill="currentColor" fill-rule="evenodd" clip-rule="evenodd" d="M11.138 3.648A2.277 2.277 0 0 0 8.86 5.926v.634a4.055 4.055 0 0 0-2.666 3.81V12h-.31a2.356 2.356 0 0 0-2.357 2.355v2.18a2.277 2.277 0 0 0 2.278 2.279h.432a2.278 2.278 0 0 0 2.235 1.835h7.11a2.278 2.278 0 0 0 2.235-1.835h.432a2.278 2.278 0 0 0 2.278-2.278v-2.222a2.278 2.278 0 0 0-2.278-2.278h-.389V10.37a4.056 4.056 0 0 0-2.666-3.81v-.634a2.278 2.278 0 0 0-2.278-2.278h-1.778Zm3.056 2.686v-.408a1.278 1.278 0 0 0-1.278-1.278h-1.778A1.277 1.277 0 0 0 9.86 5.926v.408c.13-.013.259-.02.39-.02h3.555c.13 0 .26.007.389.02Zm2.666 6.188V18.37a1.278 1.278 0 0 1-1.277 1.278H8.472a1.278 1.278 0 0 1-1.278-1.278v-8a3.056 3.056 0 0 1 3.055-3.055h3.556a3.056 3.056 0 0 1 3.055 3.055v2.152Zm1 5.29v-4.777h.39a1.278 1.278 0 0 1 1.277 1.278v2.222a1.278 1.278 0 0 1-1.278 1.278h-.389Zm-11.666 0v-4.814h-.31a1.354 1.354 0 0 0-1.357 1.356v2.18a1.277 1.277 0 0 0 1.278 1.279h.389Zm4.444-2.108a.5.5 0 0 1 .5-.5h1.778a.5.5 0 0 1 0 1h-1.778a.5.5 0 0 1-.5-.5Z"/>
</svg>
