<svg preserveAspectRatio="none" width="100%" height="100%" overflow="visible" style="display: block;" viewBox="0 0 17.3333 17.3333" fill="none" xmlns="http://www.w3.org/2000/svg">
<g id="elements">
<circle id="Ellipse 1119" cx="4.91667" cy="4.91667" r="1.25" stroke="var(--stroke-0, white)" stroke-width="1.5" stroke-linecap="round" stroke-linejoin="round"/>
<path id="Rectangle 2056" d="M0.750001 8.66667C0.750001 4.93471 0.750001 3.06874 1.90937 1.90937C3.06874 0.750001 4.93471 0.750001 8.66667 0.750001C12.3986 0.750001 14.2646 0.750001 15.424 1.90937C16.5833 3.06874 16.5833 4.93471 16.5833 8.66667C16.5833 12.3986 16.5833 14.2646 15.424 15.424C14.2646 16.5833 12.3986 16.5833 8.66667 16.5833C4.93471 16.5833 3.06874 16.5833 1.90937 15.424C0.750001 14.2646 0.750001 12.3986 0.750001 8.66667Z" stroke="var(--stroke-0, white)" stroke-width="1.5"/>
<path id="Vector" d="M2.83333 16.1667C6.47705 11.8125 10.5617 6.07005 16.5812 9.95201" stroke="var(--stroke-0, white)" stroke-width="1.5"/>
</g>
</svg>
