<svg preserveAspectRatio="none" width="100%" height="100%" overflow="visible" style="display: block;" viewBox="0 0 18.1667 16.5" fill="none" xmlns="http://www.w3.org/2000/svg">
<g id="elements">
<path id="Vector 7563" d="M14.0833 10.75V5.75C14.0833 3.39298 14.0833 2.21447 13.3511 1.48223C12.6189 0.750002 11.4404 0.750002 9.08333 0.750002H5.75C3.39298 0.750002 2.21447 0.750002 1.48223 1.48223C0.750002 2.21447 0.750002 3.39298 0.750002 5.75V10.75C0.750002 13.107 0.750002 14.2855 1.48223 15.0178C2.21447 15.75 3.39298 15.75 5.75 15.75H15.75" stroke="var(--stroke-0, white)" stroke-width="1.5" stroke-linecap="round" stroke-linejoin="round"/>
<path id="Vector 4484" d="M4.08334 4.91667L10.75 4.91667" stroke="var(--stroke-0, white)" stroke-width="1.5" stroke-linecap="round" stroke-linejoin="round"/>
<path id="Vector 7565" d="M4.08334 8.25L10.75 8.25" stroke="var(--stroke-0, white)" stroke-width="1.5" stroke-linecap="round" stroke-linejoin="round"/>
<path id="Vector 7566" d="M4.08334 11.5833L7.41667 11.5833" stroke="var(--stroke-0, white)" stroke-width="1.5" stroke-linecap="round" stroke-linejoin="round"/>
<path id="Vector 7564" d="M14.0833 4.91667H14.9167C16.0952 4.91667 16.6844 4.91667 17.0506 5.28279C17.4167 5.6489 17.4167 6.23816 17.4167 7.41667V14.0833C17.4167 15.0038 16.6705 15.75 15.75 15.75C14.8295 15.75 14.0833 15.0038 14.0833 14.0833V4.91667Z" stroke="var(--stroke-0, white)" stroke-width="1.5" stroke-linecap="round" stroke-linejoin="round"/>
</g>
</svg>
