<svg preserveAspectRatio="none" width="100%" height="100%" overflow="visible" style="display: block;" viewBox="0 0 18.1667 16.5" fill="none" xmlns="http://www.w3.org/2000/svg">
<g id="elements">
<path id="Vector" d="M3.46121 1.74653L2.43798 2.3401C1.61449 2.81781 1.20274 3.05667 0.976373 3.45402C0.750002 3.85138 0.750002 4.33527 0.750002 5.30306V12.1069C0.750002 13.3785 0.750002 14.0143 1.03522 14.3682C1.22501 14.6036 1.49097 14.7619 1.785 14.8144C2.22689 14.8933 2.7679 14.5794 3.8499 13.9518C4.58463 13.5255 5.29176 13.0829 6.17073 13.2029C6.57055 13.2575 6.95192 13.4471 7.71467 13.8264L10.8929 15.4067C11.5804 15.7485 11.5866 15.75 12.3511 15.75H14.0833C15.6547 15.75 16.4404 15.75 16.9285 15.2511C17.4167 14.7521 17.4167 13.9491 17.4167 12.3431V6.72623C17.4167 5.12019 17.4167 4.31717 16.9285 3.81823C16.4404 3.3193 15.6547 3.3193 14.0833 3.3193H12.3511C11.5866 3.3193 11.5804 3.31782 10.8929 2.976L8.11656 1.59552C6.95737 1.01914 6.37777 0.730947 5.76032 0.750976C5.14286 0.771005 4.58231 1.09618 3.46121 1.74653Z" stroke="var(--stroke-0, white)" stroke-width="1.5" stroke-linecap="round" stroke-linejoin="round"/>
<path id="Vector 7196" d="M11.5833 3.66667V15.3333" stroke="var(--stroke-0, white)" stroke-width="1.5" stroke-linecap="round" stroke-linejoin="round" stroke-dasharray="1 3"/>
<path id="Vector 7197" d="M5.75 1.16667V12.8333" stroke="var(--stroke-0, white)" stroke-width="1.5" stroke-linecap="round" stroke-linejoin="round" stroke-dasharray="1 3"/>
</g>
</svg>
