<svg preserveAspectRatio="none" width="100%" height="100%" overflow="visible" style="display: block;" viewBox="0 0 12.6667 11.5" fill="none" xmlns="http://www.w3.org/2000/svg">
<g id="elements">
<path id="Vector" d="M2.39785 1.19757L1.68159 1.61307C1.10514 1.94747 0.81692 2.11467 0.658461 2.39281C0.500001 2.67096 0.500001 3.00969 0.500001 3.68714V8.44984C0.500001 9.33996 0.500001 9.78502 0.699654 10.0327C0.832505 10.1976 1.01868 10.3083 1.2245 10.3451C1.53382 10.4003 1.91253 10.1806 2.66993 9.74123C3.18424 9.44287 3.67923 9.133 4.29451 9.21703C4.57439 9.25525 4.84135 9.38799 5.37527 9.65347L7.60004 10.7597C8.08125 10.999 8.08565 11 8.62079 11H9.83334C10.9333 11 11.4833 11 11.825 10.6507C12.1667 10.3015 12.1667 9.73938 12.1667 8.61515V4.68336C12.1667 3.55913 12.1667 2.99702 11.825 2.64776C11.4833 2.29851 10.9333 2.29851 9.83334 2.29851H8.62079C8.08565 2.29851 8.08125 2.29748 7.60004 2.0582L5.65659 1.09187C4.84516 0.688398 4.43944 0.486663 4.00722 0.500683C3.575 0.514703 3.18262 0.742326 2.39785 1.19757Z" stroke="var(--stroke-0, #008C99)" stroke-linecap="round" stroke-linejoin="round"/>
<path id="Vector 7196" d="M8.08333 2.54167V10.7083" stroke="var(--stroke-0, #008C99)" stroke-linecap="round" stroke-linejoin="round" stroke-dasharray="1 3"/>
<path id="Vector 7197" d="M4 0.791666V8.95833" stroke="var(--stroke-0, #008C99)" stroke-linecap="round" stroke-linejoin="round" stroke-dasharray="1 3"/>
</g>
</svg>
