<svg preserveAspectRatio="none" width="100%" height="100%" overflow="visible" style="display: block;" viewBox="0 0 12.6667 11.5" fill="none" xmlns="http://www.w3.org/2000/svg">
<g id="elements">
<path id="Vector 7563" d="M9.83333 7.5V4C9.83333 2.35009 9.83333 1.52513 9.32077 1.01256C8.80821 0.500001 7.98325 0.500001 6.33333 0.500001H4C2.35009 0.500001 1.52513 0.500001 1.01256 1.01256C0.500001 1.52513 0.500001 2.35009 0.500001 4V7.5C0.500001 9.14992 0.500001 9.97487 1.01256 10.4874C1.52513 11 2.35008 11 4 11H11" stroke="var(--stroke-0, #008C99)" stroke-linecap="round" stroke-linejoin="round"/>
<path id="Vector 4484" d="M2.83333 3.41667L7.5 3.41667" stroke="var(--stroke-0, #008C99)" stroke-linecap="round" stroke-linejoin="round"/>
<path id="Vector 7565" d="M2.83333 5.75L7.5 5.75" stroke="var(--stroke-0, #008C99)" stroke-linecap="round" stroke-linejoin="round"/>
<path id="Vector 7566" d="M2.83333 8.08333L5.16667 8.08333" stroke="var(--stroke-0, #008C99)" stroke-linecap="round" stroke-linejoin="round"/>
<path id="Vector 7564" d="M9.83333 3.41667H10.4167C11.2416 3.41667 11.6541 3.41667 11.9104 3.67295C12.1667 3.92923 12.1667 4.34171 12.1667 5.16667V9.83333C12.1667 10.4777 11.6443 11 11 11C10.3557 11 9.83333 10.4777 9.83333 9.83333V3.41667Z" stroke="var(--stroke-0, #008C99)" stroke-linecap="round" stroke-linejoin="round"/>
</g>
</svg>
