<svg width="25" height="25" viewBox="0 0 25 25" fill="none" xmlns="http://www.w3.org/2000/svg">
<path stroke="#A3A3A3" stroke-linecap="round" stroke-linejoin="round" d="M4.027 7.704v8.889a1.777 1.777 0 0 0 1.778 1.777h12.444a1.778 1.778 0 0 0 1.778-1.777v-8.89M4.544 17.85 10 12.392m4.054.006 5.449 5.449M4.027 7.51a1.587 1.587 0 0 0 .695 1.312l5.317 3.603a3.555 3.555 0 0 0 3.989 0l5.304-3.595a1.584 1.584 0 0 0 .695-1.311v-.01a1.583 1.583 0 0 0-1.584-1.583H5.61A1.584 1.584 0 0 0 4.027 7.51Z"/>
</svg>
