<svg preserveAspectRatio="none" width="100%" height="100%" overflow="visible" style="display: block;" viewBox="0 0 34.8331 34.8333" fill="none" xmlns="http://www.w3.org/2000/svg">
<g id="elements">
<path id="Vector" d="M9.0832 7.41754C7.0488 7.42364 5.92291 7.47231 4.99775 7.86063C3.70187 8.40454 2.64655 9.40926 2.03004 10.686C1.52683 11.7282 1.44449 13.0634 1.27979 15.7338L1.02172 19.9183C0.612173 26.559 0.407398 29.8793 2.35601 31.9813C4.30461 34.0833 7.5874 34.0833 14.153 34.0833H20.6801C27.2457 34.0833 30.5284 34.0833 32.4771 31.9813C34.4257 29.8793 34.2209 26.559 33.8113 19.9183L33.5533 15.7338C33.3886 13.0634 33.3062 11.7282 32.803 10.686C32.1865 9.40926 31.1312 8.40454 29.8353 7.86063C28.9101 7.47231 27.7843 7.42364 25.7499 7.41754" stroke="var(--stroke-0, #008C99)" stroke-width="1.5" stroke-linecap="round"/>
<path id="Rectangle 2166" d="M25.7496 9.08333L24.2732 5.39238C23.6362 3.79994 23.0819 1.9935 21.444 1.18259C20.5703 0.75 19.5189 0.75 17.4163 0.75C15.3136 0.75 14.2623 0.75 13.3885 1.18259C11.7506 1.9935 11.1963 3.79994 10.5593 5.39239L9.08292 9.08333" stroke="var(--stroke-0, #008C99)" stroke-width="1.5" stroke-linecap="round" stroke-linejoin="round"/>
<path id="Ellipse 350" d="M23.2496 20.75C23.2496 23.9717 20.6379 26.5833 17.4163 26.5833C14.1946 26.5833 11.5829 23.9717 11.5829 20.75C11.5829 17.5283 14.1946 14.9167 17.4163 14.9167C20.6379 14.9167 23.2496 17.5283 23.2496 20.75Z" stroke="var(--stroke-0, #008C99)" stroke-width="1.5"/>
<path id="Vector_2" d="M17.4159 7.41667H17.4309" stroke="var(--stroke-0, #008C99)" stroke-width="2" stroke-linecap="round" stroke-linejoin="round"/>
</g>
</svg>
