<svg preserveAspectRatio="none" width="100%" height="100%" overflow="visible" style="display: block;" viewBox="0 0 34.8333 34.8333" fill="none" xmlns="http://www.w3.org/2000/svg">
<g id="elements">
<path id="Rectangle 2111" d="M7.41667 27.3741C7.63116 29.5548 8.11593 31.0227 9.21152 32.1182C11.1766 34.0833 14.3394 34.0833 20.6649 34.0833C26.9904 34.0833 30.1532 34.0833 32.1182 32.1182C34.0833 30.1532 34.0833 26.9904 34.0833 20.6649C34.0833 14.3394 34.0833 11.1766 32.1182 9.21152C31.0227 8.11593 29.5548 7.63116 27.3741 7.41667" stroke="var(--stroke-0, #008C99)" stroke-width="1.5"/>
<path id="Rectangle 2109" d="M0.75 14.0833C0.75 7.79794 0.75 4.65524 2.70262 2.70262C4.65524 0.75 7.79794 0.75 14.0833 0.75C20.3687 0.75 23.5114 0.75 25.464 2.70262C27.4167 4.65524 27.4167 7.79794 27.4167 14.0833C27.4167 20.3687 27.4167 23.5114 25.464 25.464C23.5114 27.4167 20.3687 27.4167 14.0833 27.4167C7.79794 27.4167 4.65524 27.4167 2.70262 25.464C0.75 23.5114 0.75 20.3687 0.75 14.0833Z" stroke="var(--stroke-0, #008C99)" stroke-width="1.5"/>
<path id="Vector" d="M0.75 15.9475C1.7817 15.8164 2.82474 15.7516 3.86952 15.7539C8.28942 15.6722 12.6011 16.8772 16.0351 19.154C19.22 21.2656 21.4579 24.1717 22.4167 27.4167" stroke="var(--stroke-0, #008C99)" stroke-width="1.5" stroke-linejoin="round"/>
<path id="Vector_2" d="M19.083 9.08333H19.098" stroke="var(--stroke-0, #008C99)" stroke-width="2" stroke-linecap="round" stroke-linejoin="round"/>
</g>
</svg>
