<svg preserveAspectRatio="none" width="100%" height="100%" overflow="visible" style="display: block;" viewBox="0 0 24 24" fill="none" xmlns="http://www.w3.org/2000/svg">
<g id="Grupo 11137">
<g id="Grupo 11136">
<path id="Caminho 22500" d="M5.93023 20C7.54827 18.411 9.72294 17.5169 11.9907 17.5079C14.2585 17.499 16.4402 18.3761 18.0707 19.9523" stroke="var(--stroke-0, #008C99)" stroke-linecap="round" stroke-linejoin="round"/>
<path id="Elipse 465" d="M12.0001 14.5174C13.6517 14.5174 14.9905 13.1785 14.9905 11.5269C14.9905 9.87525 13.6517 8.53636 12.0001 8.53636C10.3484 8.53636 9.00956 9.87525 9.00956 11.5269C9.00956 13.1785 10.3484 14.5174 12.0001 14.5174Z" stroke="var(--stroke-0, #008C99)" stroke-linecap="round" stroke-linejoin="round"/>
<path id="Caminho 22501" d="M4.00143 17.0347C3.30662 15.667 2.97419 14.1442 3.03581 12.6113C3.09743 11.0784 3.55104 9.58692 4.3534 8.27937C5.15575 6.97182 6.27999 5.89107 7.61871 5.14188C8.95744 4.39269 10.466 4 12.0001 4C13.5342 4 15.0426 4.39269 16.3813 5.14188C17.7201 5.89107 18.8443 6.97182 19.6467 8.27937C20.449 9.58692 20.9027 11.0784 20.9643 12.6113C21.0259 14.1442 20.6934 15.667 19.9986 17.0347" stroke="var(--stroke-0, #008C99)" stroke-linecap="round" stroke-linejoin="round"/>
</g>
<g id="Ret&#195;&#162;ngulo 4083">
</g>
</g>
</svg>
