<svg preserveAspectRatio="none" width="100%" height="100%" overflow="visible" style="display: block;" viewBox="0 0 16 16" fill="none" xmlns="http://www.w3.org/2000/svg">
<g id="Iconografia Padrão - Zupper">
<g id="Grupo 10697">
<path id="Linha 222" d="M2.65535 12.1146H9.98869" stroke="var(--stroke-0, #008C99)" stroke-linecap="round" stroke-linejoin="round"/>
<path id="Caminho 6006" d="M4.44406 9.22323L2.98337 7.76327L3.84404 7.33325C3.92092 7.29472 4.00569 7.27466 4.09168 7.27466C4.17767 7.27466 4.26245 7.29472 4.33932 7.33325L5.2 7.76327L6.96872 6.66789L4.64605 4.45207L6.30799 3.88534L9.07801 5.54712L11.686 4.05721C11.8346 3.97218 12.0008 3.92265 12.1718 3.91268C12.3427 3.90271 12.5136 3.93274 12.6711 3.99992C12.8286 4.06709 12.9683 4.16978 13.0794 4.30005C13.1905 4.43032 13.2699 4.58446 13.3113 4.75057C13.3691 4.98106 13.3513 5.22405 13.2604 5.4436C13.1695 5.66316 13.0104 5.84771 12.8067 5.96997L8.15068 8.76327C8.03124 8.83482 7.89938 8.88313 7.76201 8.90584L4.92673 9.3785C4.83972 9.39301 4.75044 9.38664 4.66647 9.35962C4.5825 9.3326 4.50628 9.28576 4.44406 9.22323Z" stroke="var(--stroke-0, #008C99)" stroke-linecap="round" stroke-linejoin="round"/>
</g>
<g id="Retângulo 518">
</g>
</g>
</svg>
