<svg preserveAspectRatio="none" width="100%" height="100%" overflow="visible" style="display: block;" viewBox="0 0 16 16" fill="none" xmlns="http://www.w3.org/2000/svg">
<g id="Grupo 10758">
<g id="Grupo 10757">
<path id="Caminho 22359" d="M10.9629 13.3333V3.25926C10.9629 3.10209 10.9005 2.95141 10.7894 2.84028C10.6782 2.72915 10.5275 2.66667 10.3703 2.66667H5.62959C5.47243 2.66667 5.32167 2.72915 5.21054 2.84028C5.09941 2.95141 5.037 3.10209 5.037 3.25926V13.3333" stroke="var(--stroke-0, #008C99)" stroke-linecap="round" stroke-linejoin="round"/>
<path id="Caminho 22360" d="M5.037 6.22222H2.66663C2.50947 6.22222 2.35871 6.2847 2.24758 6.39583C2.13644 6.50697 2.07404 6.65765 2.07404 6.81481V13.3333" stroke="var(--stroke-0, #008C99)" stroke-linecap="round" stroke-linejoin="round"/>
<path id="Caminho 22361" d="M13.9259 13.3333V6.81481C13.9259 6.65765 13.8634 6.50697 13.7523 6.39583C13.6411 6.2847 13.4905 6.22222 13.3333 6.22222H10.9629" stroke="var(--stroke-0, #008C99)" stroke-linecap="round" stroke-linejoin="round"/>
<path id="Linha 249" d="M6.51848 10.963H9.48145" stroke="var(--stroke-0, #008C99)" stroke-linecap="round" stroke-linejoin="round"/>
<path id="Linha 250" d="M8.88885 10.963V13.3333" stroke="var(--stroke-0, #008C99)" stroke-linecap="round" stroke-linejoin="round"/>
<path id="Linha 251" d="M7.11107 13.3333V10.963" stroke="var(--stroke-0, #008C99)" stroke-linecap="round" stroke-linejoin="round"/>
<path id="Linha 252" d="M6.81478 7.11111H9.18515" stroke="var(--stroke-0, #008C99)" stroke-linecap="round" stroke-linejoin="round"/>
<path id="Linha 253" d="M6.81478 8.88889H9.18515" stroke="var(--stroke-0, #008C99)" stroke-linecap="round" stroke-linejoin="round"/>
<path id="Linha 254" d="M6.81478 5.33333H9.18515" stroke="var(--stroke-0, #008C99)" stroke-linecap="round" stroke-linejoin="round"/>
<path id="Linha 255" d="M3.85182 8.88889H5.037" stroke="var(--stroke-0, #008C99)" stroke-linecap="round" stroke-linejoin="round"/>
<path id="Linha 256" d="M3.85182 10.963H5.037" stroke="var(--stroke-0, #008C99)" stroke-linecap="round" stroke-linejoin="round"/>
<path id="Linha 257" d="M10.9629 8.88889H12.1481" stroke="var(--stroke-0, #008C99)" stroke-linecap="round" stroke-linejoin="round"/>
<path id="Linha 258" d="M10.9629 10.963H12.1481" stroke="var(--stroke-0, #008C99)" stroke-linecap="round" stroke-linejoin="round"/>
<path id="Linha 259" d="M14.5185 13.3333H1.48145" stroke="var(--stroke-0, #008C99)" stroke-linecap="round" stroke-linejoin="round"/>
</g>
<g id="Caminho 22362">
</g>
</g>
</svg>
