<svg width="25" height="25" viewBox="0 0 25 25" fill="none" xmlns="http://www.w3.org/2000/svg">
<path stroke="#A3A3A3" stroke-linecap="round" stroke-linejoin="round" d="m18.958 15.902-1.134-1.134a1.45 1.45 0 0 0-2.05 0l-.89.89a.684.684 0 0 1-.758.154 12.524 12.524 0 0 1-6.259-6.25.707.707 0 0 1 .157-.784l.798-.799a1.478 1.478 0 0 0 .082-2.132L7.77 4.714a1.932 1.932 0 0 0-2.733 0l-.63.63a3.087 3.087 0 0 0-.818 2.773 16.32 16.32 0 0 0 11.97 11.97 3.085 3.085 0 0 0 2.773-.819l.63-.629a1.934 1.934 0 0 0-.004-2.737Z"/>
</svg>
