<svg width="25" height="25" viewBox="0 0 25 25" fill="none" xmlns="http://www.w3.org/2000/svg">
<path fill="currentColor" fill-rule="evenodd" clip-rule="evenodd" d="M9.257 8.535a2.443 2.443 0 0 0-1.739-.72h-.494l3.179-3.179a2.542 2.542 0 0 1 3.595 0l3.187 3.188h-.302c-.656 0-1.274.256-1.738.72l-2.51 2.51a.467.467 0 0 1-.66 0l-2.518-2.52Zm10.365 1.926-1.927-1.927a.367.367 0 0 1-.137.028h-.875a1.73 1.73 0 0 0-1.216.504l-2.51 2.51a1.202 1.202 0 0 1-1.704 0l-2.52-2.52a1.731 1.731 0 0 0-1.215-.503H6.44a.365.365 0 0 1-.13-.026L4.377 10.46a2.542 2.542 0 0 0 0 3.595l1.934 1.934a.365.365 0 0 1 .13-.026h1.077c.453 0 .896-.184 1.216-.504l2.519-2.519c.455-.455 1.249-.455 1.704 0l2.51 2.51c.32.32.763.504 1.216.504h.875c.049 0 .095.01.137.027l1.927-1.926a2.542 2.542 0 0 0 0-3.595Zm-2.939 6.233a2.443 2.443 0 0 1-1.738-.72l-2.51-2.51a.477.477 0 0 0-.66 0l-2.518 2.52a2.443 2.443 0 0 1-1.738.719h-.495l3.179 3.178a2.542 2.542 0 0 0 3.595 0l3.188-3.187h-.303Z"/>
</svg>
