<svg preserveAspectRatio="none" width="100%" height="100%" overflow="visible" style="display: block;" viewBox="0 0 21.5 20.5" fill="none" xmlns="http://www.w3.org/2000/svg">
<g id="elements">
<path id="Vector" d="M19.1427 5.78168L17.3957 4.26461C16.1371 3.17153 15.6437 2.58352 14.9621 2.79139C14.1122 3.05059 14.392 4.68609 14.392 5.23824C13.0706 5.23824 11.6968 5.13661 10.3943 5.34836C6.09453 6.04742 4.75 9.10663 4.75 12.4025C5.96697 11.6565 7.18274 10.8246 8.6454 10.4789C10.4712 10.0473 12.5103 10.2532 14.392 10.2532C14.392 10.8054 14.1122 12.4409 14.9621 12.7001C15.7344 12.9356 16.1371 12.3199 17.3957 11.2269L19.1427 9.70981C20.2142 8.77926 20.75 8.31398 20.75 7.74574C20.75 7.1775 20.2142 6.71223 19.1427 5.78168Z" stroke="var(--stroke-0, #2E2E2E)" stroke-width="1.5" stroke-linecap="round" stroke-linejoin="round"/>
<path id="Rectangle 1702" d="M9.31758 0.75C5.45735 0.756938 3.43594 0.851515 2.14411 2.14073C0.750002 3.53202 0.750001 5.77125 0.75 10.2497C0.75 14.7282 0.749999 16.9674 2.1441 18.3587C3.53821 19.75 5.78198 19.75 10.2695 19.75C14.7571 19.75 17.0009 19.75 18.395 18.3587C19.3656 17.39 19.6604 16.0103 19.75 13.75" stroke="var(--stroke-0, #2E2E2E)" stroke-width="1.5" stroke-linecap="round" stroke-linejoin="round"/>
</g>
</svg>
