<svg preserveAspectRatio="none" width="100%" height="100%" overflow="visible" style="display: block;" viewBox="0 0 14.3333 13" fill="none" xmlns="http://www.w3.org/2000/svg">
<g id="elements">
<path id="Vector 7563" d="M11.1667 8.5V4.5C11.1667 2.61438 11.1667 1.67157 10.5809 1.08579C9.99509 0.500001 9.05229 0.500001 7.16667 0.500001H4.5C2.61438 0.500001 1.67157 0.500001 1.08579 1.08579C0.500001 1.67157 0.500001 2.61438 0.500001 4.5V8.5C0.500001 10.3856 0.500001 11.3284 1.08579 11.9142C1.67157 12.5 2.61438 12.5 4.5 12.5H12.5" stroke="var(--stroke-0, #A3A3A3)" stroke-linecap="round" stroke-linejoin="round"/>
<path id="Vector 4484" d="M3.16667 3.83333L8.5 3.83333" stroke="var(--stroke-0, #A3A3A3)" stroke-linecap="round" stroke-linejoin="round"/>
<path id="Vector 7565" d="M3.16667 6.5L8.5 6.5" stroke="var(--stroke-0, #A3A3A3)" stroke-linecap="round" stroke-linejoin="round"/>
<path id="Vector 7566" d="M3.16667 9.16667L5.83333 9.16667" stroke="var(--stroke-0, #A3A3A3)" stroke-linecap="round" stroke-linejoin="round"/>
<path id="Vector 7564" d="M11.1667 3.83333H11.8333C12.7761 3.83333 13.2475 3.83333 13.5404 4.12623C13.8333 4.41912 13.8333 4.89052 13.8333 5.83333V11.1667C13.8333 11.903 13.2364 12.5 12.5 12.5C11.7636 12.5 11.1667 11.903 11.1667 11.1667V3.83333Z" stroke="var(--stroke-0, #A3A3A3)" stroke-linecap="round" stroke-linejoin="round"/>
</g>
</svg>
