<svg preserveAspectRatio="none" width="100%" height="100%" overflow="visible" style="display: block;" viewBox="0 0 13.6667 13.6667" fill="none" xmlns="http://www.w3.org/2000/svg">
<g id="elements">
<circle id="Ellipse 1119" cx="3.83333" cy="3.83333" r="1" stroke="var(--stroke-0, #A3A3A3)" stroke-linecap="round" stroke-linejoin="round"/>
<path id="Rectangle 2056" d="M0.5 6.83333C0.5 3.84777 0.5 2.35499 1.4275 1.4275C2.35499 0.5 3.84777 0.5 6.83333 0.5C9.8189 0.5 11.3117 0.5 12.2392 1.4275C13.1667 2.35499 13.1667 3.84777 13.1667 6.83333C13.1667 9.8189 13.1667 11.3117 12.2392 12.2392C11.3117 13.1667 9.8189 13.1667 6.83333 13.1667C3.84777 13.1667 2.35499 13.1667 1.4275 12.2392C0.5 11.3117 0.5 9.8189 0.5 6.83333Z" stroke="var(--stroke-0, #A3A3A3)"/>
<path id="Vector" d="M2.16667 12.8333C5.08164 9.35001 8.34938 4.75604 13.165 7.86161" stroke="var(--stroke-0, #A3A3A3)"/>
</g>
</svg>
