<svg width="25" height="25" viewBox="0 0 25 25" fill="none" xmlns="http://www.w3.org/2000/svg">
<path stroke="currentColor" stroke-linecap="round" stroke-linejoin="round" d="M18.2221 8.03223H5.77766C4.79582 8.03223 3.99988 8.82816 3.99988 9.81V17.3656C3.99988 18.3474 4.79582 19.1433 5.77766 19.1433H18.2221C19.2039 19.1433 19.9999 18.3474 19.9999 17.3656V9.81C19.9999 8.82816 19.2039 8.03223 18.2221 8.03223Z"/>
<path stroke="currentColor" stroke-linecap="round" stroke-linejoin="round" d="M15.2398 8.03266V6.63422C15.2398 6.16273 15.0525 5.71068 14.7191 5.37728C14.3857 5.04388 13.9335 4.85645 13.4621 4.85645H10.5376C10.0661 4.85645 9.61392 5.04388 9.28052 5.37728C8.94712 5.71068 8.7598 6.16273 8.7598 6.63422V8.03266"/>
<path stroke="currentColor" stroke-linecap="round" stroke-linejoin="round" d="M7.99985 8.03223V19.1433"/>
<path stroke="currentColor" stroke-linecap="round" stroke-linejoin="round" d="M15.9998 12.9211V8.03223"/>
<path stroke="currentColor" stroke-linecap="round" stroke-linejoin="round" d="M17.3333 12.9214H12.8888V15.5881H17.3333V12.9214Z"/>
<path stroke="currentColor" stroke-linecap="round" stroke-linejoin="round" d="M15.9998 19.1434V15.5879"/>
</svg>
