<svg width="25" height="25" viewBox="0 0 25 25" fill="none" xmlns="http://www.w3.org/2000/svg">
<path fill="currentColor" fill-rule="evenodd" clip-rule="evenodd" d="M9.416 7.704a2.611 2.611 0 1 1 5.222 0 2.611 2.611 0 0 1-5.222 0Zm2.611-3.611a3.611 3.611 0 1 0 0 7.222 3.611 3.611 0 0 0 0-7.222Zm0 8.895c-1.872 0-3.74.454-5.156 1.279-1.413.822-2.455 2.068-2.455 3.659v.889a1.389 1.389 0 0 0 1.389 1.389h12.444a1.389 1.389 0 0 0 1.39-1.39v-.888c0-1.59-1.043-2.837-2.455-3.66-1.417-.824-3.285-1.277-5.157-1.277Zm-6.611 4.938c0-1.1.714-2.071 1.958-2.795 1.239-.722 2.927-1.143 4.653-1.143 1.727 0 3.414.421 4.653 1.143 1.244.724 1.958 1.696 1.958 2.795v.889a.389.389 0 0 1-.389.389H5.805a.389.389 0 0 1-.389-.39v-.888Z"/>
</svg>
