<svg width="25" height="25" viewBox="0 0 25 25" fill="none" xmlns="http://www.w3.org/2000/svg">
<path fill="currentColor" d="M21.4697 23.0303C21.7626 23.3232 22.2374 23.3232 22.5303 23.0303C22.8232 22.7374 22.8232 22.2626 22.5303 21.9697L22 22.5L21.4697 23.0303ZM20.4 20.9L19.8697 21.4303L21.4697 23.0303L22 22.5L22.5303 21.9697L20.9303 20.3697L20.4 20.9ZM21.2 18.1H21.95C21.95 15.6976 20.0024 13.75 17.6 13.75V14.5V15.25C19.174 15.25 20.45 16.526 20.45 18.1H21.2ZM17.6 14.5V13.75C15.1976 13.75 13.25 15.6976 13.25 18.1H14H14.75C14.75 16.526 16.026 15.25 17.6 15.25V14.5ZM14 18.1H13.25C13.25 20.5024 15.1976 22.45 17.6 22.45V21.7V20.95C16.026 20.95 14.75 19.674 14.75 18.1H14ZM17.6 21.7V22.45C20.0024 22.45 21.95 20.5024 21.95 18.1H21.2H20.45C20.45 19.674 19.174 20.95 17.6 20.95V21.7Z"/>
<path stroke="currentColor" stroke-width="1.5" stroke-linecap="round" stroke-linejoin="round" d="M22 12.5642V9.71749C22 7.77787 22 6.80807 21.4142 6.2055C20.8284 5.60294 19.8856 5.60294 18 5.60294H15.9214C15.004 5.60294 14.9964 5.60116 14.1715 5.18834L10.8399 3.52114C9.44884 2.82504 8.75332 2.47699 8.01238 2.50118C7.27143 2.52537 6.59877 2.91808 5.25345 3.70351L4.02558 4.42037C3.03739 4.99729 2.54329 5.28576 2.27164 5.76564C2 6.24553 2 6.82993 2 7.99873V16.2157C2 17.7514 2 18.5193 2.34226 18.9467C2.57001 19.231 2.88916 19.4222 3.242 19.4856C3.77226 19.5808 4.42148 19.2018 5.71987 18.4437C6.60156 17.929 7.45011 17.3944 8.50487 17.5394C9.38869 17.6608 10.21 18.2185 11 18.6138"/>
<path stroke="currentColor" stroke-width="1.5" stroke-linejoin="round" d="M8 2.5L8 17.5"/>
<path stroke="currentColor" stroke-width="1.5" stroke-linecap="round" stroke-linejoin="round" d="M15 5.5V11.5"/>
</svg>
